# ProBuilder 4.0.5
# https://unity3d.com/unity/features/worldbuilding/probuilder
# 13-09-2019 14:16:38

mtllib ./Tree_Green_2.mtl
o Tree Green 2

g Tree Green 2
v 0.5315311 2.180588 0.5872225
v 0.7607703 2.174481 0.6791556
v 1.104777 2.041627 -0.1409731
v 0.7267388 2.190889 0.0007370336
v -0.05408008 2.149695 0.7827128
v 0.01665723 2.00292 1.159871
v -0.63968 2.118807 -0.5857595
v -0.883437 2.211366 -0.7434512
v -1.103062 2.106754 -0.1306229
v -0.8348876 2.108505 0.0007258961
v -0.05406869 2.1497 -0.7812503
v 0.5315397 2.180593 -0.5857508
v 0.667496 2.158999 -0.7693526
v -0.03282144 2.158419 -1.144657
v -0.8938133 2.13418 0.7724283
v -0.6396885 2.118802 0.5872137
v 0.398048 3.403616 0.3965428
v 0.5380769 3.229592 0.5622054
v 0.8361358 3.300925 0.02284456
v 0.5299371 3.400598 0.0007400051
v 0.002389655 3.412677 0.528474
v -0.07470918 3.344538 0.7962897
v -0.393261 3.42174 -0.3950698
v -0.5859646 3.279692 -0.5069519
v -0.7979575 3.367718 0.06726164
v -0.52515 3.424758 0.0007326847
v -0.5854607 3.352726 0.5275498
v -0.393267 3.421737 0.396537
v 0.002397306 3.41268 -0.5270012
v 0.0329281 3.414553 -0.8223577
v 0.5183399 3.273863 -0.6152505
v 0.3980539 3.403619 -0.3950643
v 0.03940525 4.211877 0.476159
v 0.1253089 4.667502 0.2987683
v 0.3233962 4.627697 0.2244211
v 0.4536207 4.272889 0.3498119
v 0.100873 4.30453 -0.4779087
v 0.08875658 4.668145 -0.2731716
v -0.04496491 4.729231 -0.1485505
v -0.2028198 4.360595 -0.3245043
v -0.08613452 4.727624 0.2289891
v 0.236497 5.890049 0.0007497944
v 0.4070864 4.665747 0.01051509
v 0.3514894 4.665617 -0.1668295
v -0.1783399 4.72514 -0.003199823
v 0.2987247 4.354249 0.2125217
v 0.5932713 4.326962 0.01331247
v 0.3685384 4.343827 0.0007422408
v 0.08928855 4.385518 0.2831132
v -0.1201436 4.416789 -0.2110405
v -0.3820765 4.33136 -0.0245167
v -0.1899573 4.42721 0.0007385233
v 0.2987279 4.35425 -0.211038
v 0.4394423 4.258327 -0.3042789
v 0.0892926 4.38552 -0.2816325
v -0.06399905 -0.2800012 0.2946671
v -0.2844579 -0.280001 0.2211791
v -0.2378356 0.4963605 0.1745602
v -0.06399915 0.4963605 0.232507
v -0.217787 1.239291 0.1520268
v -0.066737 1.24769 0.202461
v -0.06399477 -0.2799993 -0.2932245
v 0.1564641 -0.2799993 -0.2197364
v 0.1098406 0.4963619 -0.1731109
v -0.06399578 0.4963622 -0.2310576
v 0.08431585 1.25609 -0.1505705
v -0.06673407 1.247691 -0.2010048
v 0.2299489 -0.2799998 0.0007234772
v 0.167785 0.4963613 0.0007262508
v 0.1346649 1.258889 0.0007296037
v -0.3579427 -0.2800005 0.0007193026
v -0.2844546 -0.2799995 -0.2197399
v -0.237833 0.4963621 -0.1731135
v -0.29578 0.4963611 0.0007229247
v -0.2177848 1.239293 -0.1505727
v -0.268136 1.236492 0.0007267596
v 0.1564608 -0.2800007 0.2211825
v 0.1098381 0.4963605 0.1745628
v 0.08431368 1.256089 0.1520291
v 1.038244 0.6919204 1.204024
v 1.435688 0.5933386 -0.05264683
v -0.0310627 0.679065 1.441079
v -1.062913 0.7203432 -1.180988
v -1.460358 0.5761329 0.05963801
v 1.006174 0.7947608 -1.170277
v -0.1166071 0.7873238 -1.471523
v -1.073626 0.7294247 1.182617
v -0.1201468 4.416787 0.2125186
v -0.2613426 4.318017 0.3592629

vt 0.7566387 0.2482178
vt 0.754627 0.2480825
vt 0.7508478 0.2502857
vt 0.7526473 0.2527086
vt 0.7572582 0.2418433
vt 0.7545643 0.2436289
vt 0.7422822 0.2416249
vt 0.7451993 0.2426009
vt 0.747216 0.2402947
vt 0.7476148 0.2381805
vt 0.7422822 0.248112
vt 0.7467385 0.251938
vt 0.7474172 0.250158
vt 0.7450798 0.2472404
vt 0.7516291 0.240885
vt 0.7526451 0.2394349
vt 0.0801791 0.7478595
vt 0.08349769 0.7467254
vt 0.08362433 0.7431111
vt 0.0808975 0.7418647
vt 0.08460187 0.7534583
vt 0.08693575 0.7498991
vt 0.09558395 0.7407123
vt 0.09347691 0.7426088
vt 0.09341703 0.746737
vt 0.09724955 0.7470789
vt 0.09124416 0.7495112
vt 0.09295289 0.7534583
vt 0.09169772 0.7349938
vt 0.0897079 0.7396247
vt 0.08632109 0.7394994
vt 0.08401221 0.7366733
vt 0.7650802 0.2442725
vt 0.7639961 0.2455326
vt 0.7642384 0.2461697
vt 0.7656556 0.2461945
vt 0.7615064 0.2477051
vt 0.7624965 0.2465742
vt 0.7625548 0.2460071
vt 0.7608094 0.245983
vt 0.7633669 0.2453256
vt 0.7632779 0.2460714
vt 0.7637966 0.246726
vt 0.7632815 0.2469808
vt 0.7626764 0.2454591
vt 0.7711177 0.2463317
vt 0.7647808 0.2478103
vt 0.7673156 0.2508972
vt 0.7726923 0.2380237
vt 0.7592019 0.2455269
vt 0.7616189 0.2442952
vt 0.7592019 0.2417858
vt 0.7624384 0.2514535
vt 0.7631302 0.2486581
vt 0.7593179 0.2489831
vt 0.7613893 0.5715234
vt 0.7595937 0.5715606
vt 0.7599267 0.5777124
vt 0.7613959 0.5776795
vt 0.7601508 0.5835835
vt 0.7613903 0.5836272
vt 0.768527 0.5722969
vt 0.7667627 0.5719403
vt 0.7657674 0.5779724
vt 0.7671893 0.5782123
vt 0.7651016 0.5838994
vt 0.7663346 0.5840021
vt 0.7649772 0.5717105
vt 0.7643238 0.5778088
vt 0.7638639 0.5838081
vt 0.7578055 0.5717197
vt 0.7560237 0.5719517
vt 0.7570214 0.5779794
vt 0.758464 0.5778196
vt 0.7576867 0.5837741
vt 0.7589148 0.5836374
vt 0.7631863 0.5715554
vt 0.7628637 0.5777053
vt 0.7626265 0.5837107
vt 0.7542639 0.5723091
vt 0.7556025 0.5782141
vt 0.7564667 0.5840021
vt 0.7587309 0.5829394
vt 0.7631694 0.5829394
vt 0.7667202 0.5802764
vt 0.7667202 0.5758378
vt 0.7560678 0.5793886
vt 0.7640572 0.572287
vt 0.7560678 0.57495
vt 0.7596186 0.572287
vt 0.07163715 0.7439961
vt 0.07841762 0.7418386
vt 0.07366401 0.737232
vt 0.07108335 0.7435114
vt 0.07156456 0.7447298
vt 0.07738818 0.7472134
vt 0.06977664 0.7447104
vt 0.0633525 0.7465789
vt 0.06802932 0.751138
vt 0.07033591 0.7452018
vt 0.07035407 0.7434255
vt 0.0676414 0.737232
vt 0.06396985 0.7416915
vt 0.06985392 0.7439705
vt 0.07397968 0.7513065
vt 0.07107194 0.7452795
vt 0.07760639 0.7460204
vt 0.07240972 0.7449076
vt 0.07133215 0.7459084
vt 0.07391006 0.7508644
vt 0.0767757 0.7410654
vt 0.07208874 0.7434213
vt 0.0685636 0.7436342
vt 0.06955139 0.742494
vt 0.06803681 0.7508644
vt 0.06994502 0.7459802
vt 0.06882514 0.7450826
vt 0.0639843 0.7467372
vt 0.07109308 0.7422678
vt 0.07321163 0.7377441
vt 0.7508779 0.2459497
vt 0.7501515 0.2465178
vt 0.7509677 0.2449403
vt 0.7485762 0.2447527
vt 0.7493197 0.2441682
vt 0.749225 0.2464456
vt 0.7485453 0.2457901
vt 0.7502638 0.2442722
vt 0.08732214 0.7449141
vt 0.08734212 0.744181
vt 0.0879865 0.7453278
vt 0.0891236 0.7440631
vt 0.08912878 0.7448103
vt 0.08776712 0.7435831
vt 0.08849926 0.743633
vt 0.08869974 0.7453736
vt 0.7635641 0.243583
vt 0.763541 0.2378905

vn -0.2447584 -0.9435272 -0.01262512
vn -0.07753327 -0.9887837 0.127653
vn -0.4119835 -0.8982707 -0.1529033
vn -0.000378781 -0.963476 -0.2335911
vn -0.01734719 -0.9328743 -0.3597842
vn 0.01658963 -0.9940777 -0.1073981
vn -0.09724934 -0.974533 -0.1248179
vn -0.2075088 -0.9492381 -0.236405
vn 0.01301009 -0.9998278 -0.0132308
vn -0.08075142 -0.9541714 -0.2151509
vn -0.08610032 -0.9115919 -0.4019789
vn 0.007577419 -0.9967387 0.03189337
vn -0.04432725 -0.9954579 0.08425383
vn 0.05948209 -0.9980195 -0.02046708
vn -0.02388131 -0.9991155 0.03141679
vn -0.009406837 -0.9994264 0.03253238
vn -0.03835578 -0.9988046 0.03030121
vn -0.07540252 -0.9967508 -0.02832292
vn 0.03208411 -0.9483633 -0.2286828
vn -0.1123178 -0.9910734 -0.07182072
vn 0.176486 -0.9056532 -0.3855449
vn -0.404673 -0.860481 -0.2379431
vn -0.5072744 -0.7722654 -0.3824643
vn -0.3020717 -0.9486966 -0.09342194
vn -0.2553024 -0.8321683 -0.4623359
vn -0.2893829 -0.904448 -0.3134187
vn -0.2212218 -0.7598885 -0.6112531
vn 0.3364452 -0.9071242 0.188509
vn 0.4498602 -0.8428686 0.2952936
vn 0.2230301 -0.9713798 0.08172444
vn 0.226234 -0.9669031 -0.106306
vn 0.1767548 -0.9776952 -0.1134461
vn 0.2757133 -0.956111 -0.09916595
vn 0.1558637 -0.928631 0.3366763
vn -0.1481413 -0.9755956 0.1620721
vn 0.2183154 -0.9145285 0.3405522
vn 0.1919468 -0.7546131 0.6274675
vn -0.4344605 -0.8711107 0.1874031
vn -0.3162938 -0.9280059 0.1968841
vn -0.5526273 -0.8142155 0.1779221
vn 0.2999639 0.3326188 0.8878136
vn 0.3854818 0.2707525 0.882098
vn 0.2144459 0.3944851 0.8935292
vn -0.4127181 0.4606474 -0.7767452
vn -0.5162705 0.407063 -0.7535015
vn -0.3091658 0.5142317 -0.7999889
vn -0.2384521 0.2504181 0.938313
vn 0.9461507 0.1294664 -0.2967108
vn -0.5994295 0.2434152 -0.7625178
vn -0.8836882 0.3135128 0.3475701
vn 0.3716722 0.1600614 -0.9144617
vn -0.7156433 0.2570505 -0.6494457
vn 0.3778756 0.1866919 0.9068385
vn 0.9151894 0.1305602 0.3812903
vn -0.1682837 -0.9636519 -0.1168253
vn -0.2604235 -0.9304947 -0.2576029
vn -0.07614396 -0.9968091 0.02395229
vn -0.1722824 -0.8510451 -0.4960254
vn -0.1002473 -0.7267241 -0.6795753
vn -0.2349565 -0.9291242 -0.2855237
vn 0.4114591 -0.8957127 0.1675661
vn 0.4032235 -0.9022167 0.1530222
vn 0.4196946 -0.8892088 0.1821101
vn -0.2879078 -0.8790994 0.3772369
vn -0.3215504 -0.8589863 0.3984318
vn -0.2542653 -0.8992125 0.3560419
vn 0.01770633 -0.9116954 0.409396
vn 0.0226797 -0.9236854 0.3824801
vn 0.01273295 -0.8997054 0.436312
vn -0.3017858 -0.9339178 0.1916325
vn -0.08636311 -0.9643263 0.2502325
vn -0.5018881 -0.8560984 0.1233042
vn -0.3153262 0.0757388 0.9459562
vn -0.3157289 0.05652077 0.9471645
vn -0.3163081 0.05638093 0.9469796
vn -0.3171708 0.03700177 0.9476463
vn -0.3183267 0.0367217 0.9472696
vn 0.3153259 0.07574735 -0.9459556
vn 0.3157156 0.05725446 -0.947125
vn 0.3153424 0.05733991 -0.947244
vn 0.3152518 0.03891287 -0.94821
vn 0.3145066 0.0390838 -0.9484503
vn 0.9459602 0.075745 -0.3153125
vn 0.9470627 0.05846743 -0.3156801
vn 0.9478438 0.04119824 -0.3160614
vn -0.9459559 0.07574353 -0.3153259
vn -0.9472204 0.05546993 -0.3157476
vn -0.9473053 0.05553297 -0.3154817
vn -0.9482661 0.03529969 -0.3155079
vn -0.948438 0.03542593 -0.3149766
vn 0.3153118 0.07573935 0.9459609
vn 0.3156986 0.05740977 0.9471211
vn 0.3153335 0.05731926 0.9472483
vn 0.3152474 0.03887955 0.9482128
vn 0.3145156 0.03869827 0.9484632
vn -0.3153114 0.07574692 -0.9459605
vn -0.3157187 0.05626898 -0.9471829
vn -0.3163008 0.05640901 -0.9469804
vn -0.3171715 0.03704993 -0.9476442
vn -0.3183367 0.0373302 -0.9472424
vn 7.660573E-07 -1 -2.778751E-06
vn -0.9459604 0.0757409 0.3153129
vn -0.9472187 0.05558663 0.3157323
vn -0.94731 0.05552128 0.3154698
vn -0.9482706 0.03527883 0.3154971
vn -0.9484501 0.03514797 0.3149712
vn 0.9459558 0.07574238 0.3153266
vn 0.9470568 0.0584885 0.3156937
vn 0.9478396 0.04119167 0.3160748
vn -0.4511816 -0.8830449 -0.1195904
vn -0.4479287 -0.8911852 -0.07175481
vn -0.4544344 -0.8749046 -0.1674259
vn -0.08347264 -0.9075639 -0.4115177
vn -0.08086248 -0.9067125 -0.4139249
vn -0.0860828 -0.9084153 -0.4091105
vn 0.4808863 -0.8699518 0.09808923
vn 0.4769045 -0.877487 0.05078124
vn 0.484868 -0.8624167 0.1453972
vn -0.07422094 -0.9361365 0.3434958
vn -0.08632615 -0.9346895 0.3448236
vn -0.06211574 -0.9375834 0.3421681
vn 0.4415779 -0.89173 -0.08163246
vn 0.4822359 -0.874798 -0.04665857
vn 0.4009198 -0.9086618 -0.1166063
vn 0.1650885 -0.9287333 0.3319525
vn 0.1670991 -0.9290463 0.3300771
vn 0.1630779 -0.9284204 0.3338279
vn -0.3916491 -0.913221 0.07047428
vn -0.4549136 -0.8904199 0.01435309
vn -0.3283845 -0.936022 0.1265955
vn 0.122051 -0.9016205 -0.4095269
vn 0.05626865 -0.9126719 -0.404801
vn 0.1878333 -0.8905692 -0.4142527
vn 0.8745301 0.4002759 0.2722382
vn 0.861105 0.4148748 0.2938999
vn 0.8879552 0.3856771 0.2505766
vn 0.2310921 0.4135781 0.8795485
vn 0.2717554 0.3967631 0.8767714
vn 0.1904288 0.4303932 0.8823256
vn -0.8887366 0.3724127 -0.2659817
vn -0.8769971 0.3867672 -0.2851092
vn -0.9004761 0.3580583 -0.2468542
vn 0.2462624 0.4405074 -0.8630829
vn 0.2613897 0.4497508 -0.854049
vn 0.2311352 0.4312641 -0.8721169
vn -0.8851145 0.3784781 0.2701416
vn -0.8828886 0.3714163 0.2873286
vn -0.8873404 0.38554 0.2529545
vn -0.2981054 0.4447322 -0.844564
vn -0.3049797 0.4415368 -0.8438202
vn -0.2912311 0.4479277 -0.8453078
vn 0.8715349 0.4027089 -0.279112
vn 0.8692928 0.3956687 -0.2962707
vn 0.873777 0.4097491 -0.2619532
vn -0.2531433 0.4256591 0.8663562
vn -0.3036191 0.4538417 0.8377608
vn -0.2026676 0.3974765 0.8949516
vn -0.2189443 -0.9653905 0.05682109
vn -0.3451785 -0.9362608 0.06532598
vn -0.09271017 -0.9945202 0.04831621
vn 0.89037 0.3368966 0.3059298
vn 0.8955563 0.3323138 0.2958826
vn 0.8851837 0.3414794 0.3159771
vn 0.3789992 0.3590464 0.848209
vn 0.2990087 0.3925711 0.8697596
vn 0.4589898 0.3255217 0.8266583
vn -0.8672216 0.4196386 -0.2666975
vn -0.8557344 0.4295708 -0.2884224
vn -0.8787088 0.4097064 -0.2449725
vn 0.3700719 0.3610603 -0.8521506
vn 0.3050271 0.3342125 -0.8917738
vn 0.4351168 0.387908 -0.8125274
vn -0.8892716 0.3813128 0.2461878
vn -0.8848916 0.358345 0.2975832
vn -0.8936515 0.4042808 0.1947924
vn -0.3243859 0.4117856 -0.8499869
vn -0.2765752 0.43079 -0.8590263
vn -0.3721966 0.3927812 -0.8409475
vn 0.8374565 0.3612243 -0.3930286
vn 0.8710798 0.3984132 -0.2872053
vn 0.8038332 0.3240353 -0.4988518
vn -0.3000169 0.3774408 0.8759054
vn -0.2863394 0.3694076 0.8840519
vn -0.3136944 0.3854741 0.8677589
vn -0.2079445 -0.9661053 0.152969
vn -0.3828118 -0.8720963 0.3048002
vn 0.09713191 -0.9585067 -0.2625063
vn 0.1393695 -0.9456865 -0.2936891
vn 0.05489435 -0.9713269 -0.2313236
vn 0.8539356 0.3250118 0.3871396
vn 0.9146713 0.2840674 0.287545
vn 0.7931999 0.3659561 0.4867341
vn 0.3683369 0.3592955 0.8570765
vn 0.345869 0.3704775 0.8620447
vn 0.3908048 0.3481136 0.8521083
vn -0.8339292 0.436293 -0.3356616
vn -0.8520475 0.4276187 -0.3019226
vn -0.8158108 0.4449674 -0.3694006
vn 0.4009555 0.4011487 -0.8210309
vn 0.3458803 0.3896502 -0.8535453
vn 0.4560307 0.4126473 -0.7885165
vn -0.8098133 0.4762501 0.3392668
vn -0.8207297 0.4894833 0.2946334
vn -0.7988968 0.4630168 0.3839002
vn -0.3486719 0.4427139 -0.8131225
vn -0.213515 0.4847477 -0.8481928
vn -0.4838288 0.4006801 -0.7780522
vn 0.8595514 0.3605137 -0.3514223
vn 0.8804455 0.3890133 -0.27108
vn 0.8386573 0.3320141 -0.4317646
vn -0.3275266 0.41351 0.8430462
vn -0.2460044 0.3725055 0.8948305
vn -0.4090489 0.4545145 0.791262
vn 0.8047239 0.439719 0.3987662
vn 0.8089661 0.4361892 0.3940974
vn 0.8004816 0.4432487 0.403435
vn -0.7102827 0.4852143 -0.4963982
vn -0.628822 0.5374638 -0.5618858
vn -0.7917433 0.4329648 -0.4309106
vn 0.4038394 0.4074425 -0.8151341
vn 0.3520875 0.3666517 -0.8611626
vn 0.4555913 0.4482334 -0.7691056
vn -0.8458305 0.4355627 0.3065765
vn -0.845244 0.4193909 0.3311706
vn -0.846417 0.4517345 0.2819825
vn 0.8317717 0.3986507 -0.3669464
vn 0.8458451 0.4626554 -0.2655108
vn 0.8176983 0.3346459 -0.468382
vn -0.2025957 0.3803233 0.9022906
vn -0.1939231 0.371695 0.9078748
vn -0.2112683 0.3889516 0.8967064
vn 0.4426321 -0.878403 -0.1793985
vn 0.4578507 -0.871766 -0.1743469
vn 0.4274135 -0.88504 -0.1844501
vn 0.02657245 -0.7783139 -0.6210119
vn -0.05341513 -0.8038393 -0.5924435
vn 0.10656 -0.7527885 -0.6495803

g Tree Green 2
usemtl Low_Poly_Forest_Pack_Material
f 23/23/37 24/24/36 29/29/34
f 34/34/47 42/42/47 41/41/47
f 44/44/48 42/42/48 43/43/48
f 39/39/49 42/42/49 38/38/49
f 41/41/50 42/42/50 45/45/50
f 38/38/51 42/42/51 44/44/51
f 45/45/52 42/42/52 39/39/52
f 35/35/53 42/42/53 34/34/53
f 43/43/54 42/42/54 35/35/54
f 36/36/58 33/33/59 49/49/58
f 46/46/60 36/36/58 49/49/58
f 54/54/70 47/47/71 48/48/70
f 53/53/72 54/54/70 48/48/70
f 72/85/101 62/84/101 63/83/101
f 63/83/101 71/86/101 72/85/101
f 30/30/35 31/31/186 32/32/185
f 3/3/1 2/2/2 1/1/1
f 1/1/1 4/4/3 3/3/1
f 2/2/4 6/6/5 5/5/4
f 5/5/4 1/1/6 2/2/4
f 9/9/7 8/8/8 7/7/7
f 7/7/7 10/10/9 9/9/7
f 11/11/10 7/7/11 8/8/10
f 8/8/10 14/14/18 11/11/10
f 14/14/12 13/13/13 12/12/12
f 12/12/12 11/11/14 14/14/12
f 15/15/15 9/9/16 10/10/15
f 10/10/15 16/16/17 15/15/15
f 6/6/19 15/15/20 16/16/19
f 16/16/19 5/5/21 6/6/19
f 19/19/22 18/18/23 17/17/22
f 17/17/22 20/20/24 19/19/22
f 18/18/25 22/22/26 21/21/25
f 21/21/25 17/17/27 18/18/25
f 25/25/28 24/24/29 23/23/28
f 23/23/28 26/26/30 25/25/28
f 27/27/31 25/25/32 26/26/31
f 26/26/31 28/28/33 27/27/31
f 29/29/34 24/24/36 30/30/35
f 30/30/35 32/32/185 29/29/34
f 31/31/38 19/19/39 20/20/38
f 20/20/38 32/32/40 31/31/38
f 35/35/41 34/34/42 33/33/41
f 33/33/41 36/36/43 35/35/41
f 39/39/44 38/38/45 37/37/44
f 37/37/44 40/40/46 39/39/44
f 47/47/55 36/36/56 46/46/55
f 46/46/55 48/48/57 47/47/55
f 51/51/61 40/40/62 50/50/61
f 50/50/61 52/52/63 51/51/61
f 37/37/64 54/54/65 53/53/64
f 53/53/64 55/55/66 37/37/64
f 40/40/67 37/37/68 55/55/67
f 55/55/67 50/50/69 40/40/67
f 58/58/74 57/57/73 56/56/73
f 56/56/73 59/59/75 58/58/74
f 60/60/76 58/58/74 59/59/75
f 59/59/75 61/61/77 60/60/76
f 64/64/79 63/63/78 62/62/78
f 62/62/78 65/65/80 64/64/79
f 66/66/81 64/64/79 65/65/80
f 65/65/80 67/67/82 66/66/81
f 69/69/84 68/68/83 63/63/83
f 63/63/83 64/64/84 69/69/84
f 70/70/85 69/69/84 64/64/84
f 64/64/84 66/66/85 70/70/85
f 73/73/87 72/72/86 71/71/86
f 71/71/86 74/74/88 73/73/87
f 75/75/89 73/73/87 74/74/88
f 74/74/88 76/76/90 75/75/89
f 59/59/92 56/56/91 77/77/91
f 77/77/91 78/78/93 59/59/92
f 61/61/94 59/59/92 78/78/93
f 78/78/93 79/79/95 61/61/94
f 65/81/97 62/80/96 72/72/96
f 72/72/96 73/73/98 65/81/97
f 67/82/99 65/81/97 73/73/98
f 73/73/98 75/75/100 67/82/99
f 71/86/101 63/83/101 68/87/101
f 68/87/101 57/88/101 71/86/101
f 57/88/101 68/87/101 77/89/101
f 77/89/101 56/90/101 57/88/101
f 74/74/103 71/71/102 57/57/102
f 57/57/102 58/58/104 74/74/103
f 76/76/105 74/74/103 58/58/104
f 58/58/104 60/60/106 76/76/105
f 78/78/108 77/77/107 68/68/107
f 68/68/107 69/69/108 78/78/108
f 79/79/109 78/78/108 69/69/108
f 69/69/108 70/70/109 79/79/109
f 81/93/110 80/92/111 79/91/110
f 79/91/110 70/94/112 81/93/110
f 80/92/113 82/96/114 61/95/113
f 61/95/113 79/91/115 80/92/113
f 84/99/116 83/98/117 75/97/116
f 75/97/116 76/100/118 84/99/116
f 86/103/119 85/102/120 66/101/119
f 66/101/119 67/104/121 86/103/119
f 87/105/122 84/99/123 76/100/122
f 76/100/122 60/106/124 87/105/122
f 83/98/125 86/103/126 67/104/125
f 67/104/125 75/97/127 83/98/125
f 85/102/128 81/93/129 70/94/128
f 70/94/128 66/101/130 85/102/128
f 82/96/131 87/105/132 60/106/131
f 60/106/131 61/95/133 82/96/131
f 4/109/134 1/108/135 80/107/134
f 80/107/134 81/110/136 4/109/134
f 1/108/137 5/112/138 82/111/137
f 82/111/137 80/107/139 1/108/137
f 10/114/140 7/113/141 83/103/140
f 83/103/140 84/102/142 10/114/140
f 11/117/143 12/116/144 85/115/143
f 85/115/143 86/118/145 11/117/143
f 16/119/146 10/114/147 84/102/146
f 84/102/146 87/120/148 16/119/146
f 7/113/149 11/117/150 86/118/149
f 86/118/149 83/103/151 7/113/149
f 12/116/152 4/109/153 81/110/152
f 81/110/152 85/115/154 12/116/152
f 5/112/155 16/119/156 87/120/155
f 87/120/155 82/111/157 5/112/155
f 13/13/158 3/3/159 4/4/158
f 4/4/158 12/12/160 13/13/158
f 20/122/161 17/121/162 2/2/161
f 2/2/161 3/3/163 20/122/161
f 17/121/164 21/123/165 6/6/164
f 6/6/164 2/2/166 17/121/164
f 26/125/167 23/124/168 8/8/167
f 8/8/167 9/9/169 26/125/167
f 29/127/170 32/126/171 13/13/170
f 13/13/170 14/14/172 29/127/170
f 28/128/173 26/125/174 9/9/173
f 9/9/173 15/15/175 28/128/173
f 23/124/176 29/127/177 14/14/176
f 14/14/176 8/8/178 23/124/176
f 32/126/179 20/122/180 3/3/179
f 3/3/179 13/13/181 32/126/179
f 21/123/182 28/128/183 15/15/182
f 15/15/182 6/6/184 21/123/182
f 22/22/187 27/27/188 28/28/187
f 28/28/187 21/21/189 22/22/187
f 48/130/190 46/129/191 18/18/190
f 18/18/190 19/19/192 48/130/190
f 46/129/193 49/131/194 22/22/193
f 22/22/193 18/18/195 46/129/193
f 52/133/196 50/132/197 24/24/196
f 24/24/196 25/25/198 52/133/196
f 55/135/199 53/134/200 31/31/199
f 31/31/199 30/30/201 55/135/199
f 88/136/202 52/133/203 25/25/202
f 25/25/202 27/27/204 88/136/202
f 50/132/205 55/135/206 30/30/205
f 30/30/205 24/24/207 50/132/205
f 53/134/208 48/130/209 19/19/208
f 19/19/208 31/31/210 53/134/208
f 49/131/211 88/136/212 27/27/211
f 27/27/211 22/22/213 49/131/211
f 43/43/214 35/35/215 36/36/214
f 36/36/214 47/47/216 43/43/214
f 45/45/217 39/39/218 40/40/217
f 40/40/217 51/51/219 45/45/217
f 38/38/220 44/44/221 54/54/220
f 54/54/220 37/37/222 38/38/220
f 41/41/223 45/45/224 51/51/223
f 51/51/223 89/137/225 41/41/223
f 44/44/226 43/43/227 47/47/226
f 47/47/226 54/54/228 44/44/226
f 34/34/229 41/41/230 89/137/229
f 89/137/229 33/33/231 34/34/229
f 89/137/232 51/51/233 52/52/232
f 52/52/232 88/138/234 89/137/232
f 33/33/235 89/137/236 88/138/235
f 88/138/235 49/49/237 33/33/235

